<?xml version="1.0" standalone="no"?><!DOCTYPE svg PUBLIC "-//W3C//DTD SVG 1.1//EN" "http://www.w3.org/Graphics/SVG/1.1/DTD/svg11.dtd"><svg t="1674978099472" class="icon" viewBox="0 0 1024 1024" version="1.1" xmlns="http://www.w3.org/2000/svg" p-id="6787" xmlns:xlink="http://www.w3.org/1999/xlink" width="200" height="200"><path d="M723.5 960.2H620.9c-38.9 0-70.5-31.4-70.5-70.1V722.6c0-14.3-11.7-26-26.1-26H500c-14.4 0-26.1 11.6-26.1 26v167.5c0 38.7-31.6 70.1-70.5 70.1H300.9c-84.3 0-152.6-68-152.6-151.8V566.2c0-11.4-7.5-21.6-18.5-24.8-4.1-1.2-8.1-2.7-12-4.5-31.5-14.3-51.1-44.6-51.1-79.1 0-25.6 11.2-49.8 30.9-66.3l71.2-60.1c5.8-4.9 9.2-12.2 9.2-19.8V186.5c0-23 9.1-44.5 25.6-60.6s38.3-24.8 61.4-24.4c31.8 0.6 59.5 19 73.8 45.6 7.7 14.5 27.2 17.9 39.7 7.3l84-70.9c29-24.5 72.5-24.1 101.1 0.9L930 404.5c17.6 15.4 27.7 37.5 27.7 60.8 0 32-18.1 60.1-47.3 73.5-4.7 2.1-9.5 3.8-14.3 5.1-11.6 2.9-19.9 13.2-19.9 25.1v239.3c-0.1 84-68.4 151.9-152.7 151.9z m-92.9-53.7h92.9c54.4 0 98.6-43.9 98.6-98V511.8c0-9.3 5-17.8 13-22.5l1-0.6c8.1-4.6 18-4.7 26.1-0.1l0.5 0.3c4.2 2.4 8.8 3.7 13.5 3.7 4 0 7.9-0.9 11.6-2.6 10-4.6 15.9-13.8 15.9-24.7 0-7.8-3.4-15.3-9.3-20.4L527.9 124.6c-8.5-7.4-21.9-7.5-30.5-0.3l-158 133.4-0.4 0.3c-7.7 6.6-18.6 8.2-27.9 3.9l-1.2-0.5c-9.3-4.2-15.2-13.4-15.2-23.6V187.4c0-17.5-13.8-32-30.8-32.3-8.5-0.1-16.5 3-22.6 9-6.1 5.9-9.4 13.8-9.4 22.3v149.1c0.3 7.9-3.1 15.5-9.2 20.7l-0.4 0.3-89.9 75.9c-7.5 6.3-11.8 15.5-11.8 25.3 0 13.4 7.3 24.7 19.5 30.2 8.2 3.7 17.3 4.1 25.4 1l0.2-0.1 0.5-0.2c8-2.9 16.9-1.8 23.9 3l0.9 0.6c7 4.8 11.2 12.8 11.2 21.3v294.7c0 54.1 44.1 98 98.6 98h92.9c14.4 0 26.1-11.6 26.1-26V722.3c0-43.8 35.7-79.4 79.8-79.4h25c44.1 0 79.8 35.5 79.8 79.4v158.2c0.1 14.3 11.8 26 26.2 26z" p-id="6788"></path></svg>